# xmcd
#
# Track frame offsets: 
#        150
#        10907
#        31075
#        52267
#        71629
#        91780
#        108413
#        128997
#        145818
#        161978
#        180770
#        196809
#
# Disc length: 2877 seconds
#
# Revision: 2
# Processed by: cddbd v1.5.2PL0 Copyright (c) Steve Scherf et al.
# Submitted via: ExactAudioCopy v1.0b1
#
DISCID=9d0b3b0c
DTITLE=Various Artist - Songs Of The Year
DYEAR=2006
DGENRE=Country
TTITLE0=Willie Nelson and Jack Ingram - Dang Me
TTITLE1=The Wreckers - Strawberry Wine
TTITLE2=Trace Adkins - Sunday Mornin' Comin' Down
TTITLE3=Trisha Yearwood - Back Home Again
TTITLE4=Dierks Bentley and George Jones - Murder On Music Row
TTITLE5=Jo Dee Messina - When I Call Your Name
TTITLE6=Lonestar - City Of New Orleans
TTITLE7=Randy Travis - Chiseled In Stone
TTITLE8=Jypsi - Stranger In My House
TTITLE9=Jamie O'Neal and Michael McDonald - I Still Believe In You
TTITLE10=Blake Shelton - The Gambler
TTITLE11=Deana Carter and Heart - Go Rest High On That Mountain
EXTD=CD released exclusively through Cracker Barrel retail stores and 
EXTD=online store
EXTT0=
EXTT1=
EXTT2=
EXTT3=
EXTT4=
EXTT5=
EXTT6=
EXTT7=
EXTT8=
EXTT9=
EXTT10=
EXTT11=
PLAYORDER=
